<?xml version="1.0" standalone="no"?><!DOCTYPE svg PUBLIC "-//W3C//DTD SVG 1.1//EN" "http://www.w3.org/Graphics/SVG/1.1/DTD/svg11.dtd"><svg t="1755972672807" class="icon" viewBox="0 0 1226 1024" version="1.1" xmlns="http://www.w3.org/2000/svg" p-id="7676" xmlns:xlink="http://www.w3.org/1999/xlink" width="239.453125" height="200"><path d="M1108.560305 275.45347h-51.134835l-16.866063-67.464251a117.832447 117.832447 0 0 0-114.995882-89.160141H581.649173a39.328592 39.328592 0 0 1-23.535824-7.666392L440.05091 22.999176a118.292431 118.292431 0 0 0-70.300816-22.999176h-249.924385A118.292431 118.292431 0 0 0 1.533278 118.062439V889.30149a114.459235 114.459235 0 0 0-1.533278 16.329415 118.062439 118.062439 0 0 0 118.062439 118.062439h819.537321a118.062439 118.062439 0 0 0 112.159318-80.727109l170.730553-510.811709a116.529161 116.529161 0 0 0 6.133114-38.331961 118.292431 118.292431 0 0 0-118.06244-118.292431zM119.825709 78.733847h249.924385a40.095231 40.095231 0 0 1 23.535823 7.666393l117.832448 87.856854a118.292431 118.292431 0 0 0 70.300816 22.999176h344.221008a39.328592 39.328592 0 0 1 38.33196 29.89893l12.036236 48.068278H322.985101a117.2958 117.2958 0 0 0-109.629407 74.364004L80.267126 682.308902V118.062439a39.865239 39.865239 0 0 1 39.635247-39.328592zM1145.895635 406.318784l-170.730553 510.811709a39.635247 39.635247 0 0 1-37.565322 28.365651H118.062439a39.328592 39.328592 0 0 1-38.331961-35.802051 16.866063 16.866063 0 0 0 0-3.833196v-14.796137L283.65651 380.023059a39.328592 39.328592 0 0 1 36.56869-25.529086H1108.560305a39.328592 39.328592 0 0 1 39.328592 39.635248 39.865239 39.865239 0 0 1-2.069926 12.266227z" fill="#0188FB" p-id="7677"></path></svg>