<?xml version="1.0" standalone="no"?><!DOCTYPE svg PUBLIC "-//W3C//DTD SVG 1.1//EN" "http://www.w3.org/Graphics/SVG/1.1/DTD/svg11.dtd"><svg t="1755973193163" class="icon" viewBox="0 0 1024 1024" version="1.1" xmlns="http://www.w3.org/2000/svg" p-id="23774" width="16" height="16" xmlns:xlink="http://www.w3.org/1999/xlink"><path d="M-34.13333333-34.13333333h1092.26666666v1092.26666666H-34.13333333z" fill="#3d8af2" fill-opacity="0" p-id="23775"></path><path d="M866.16746667 860.84266667a56.9344 56.9344 0 0 1-56.77511147 57.00266666H99.5555552l99.44177813-470.35733333a56.7523552 56.7523552 0 0 1 56.61582187-57.00266667h653.0844448a56.86613333 56.86613333 0 0 1 56.7523552 57.00266667l-99.28248853 413.37742187z m-653.0844448-513.18328854h638.86222293v-55.97866666a56.9344 56.9344 0 0 0-56.77511147-57.00266667H454.61048853v-51.65511147a56.86613333 56.86613333 0 0 0-56.7751104-56.97991146H113.77777813a56.86613333 56.86613333 0 0 0-56.75235626 57.00266666V860.84266667l99.2824896-456.0896a57.04817813 57.04817813 0 0 1 56.7751104-57.1164448z" fill="#3d8af2" p-id="23776"></path></svg>